<mxfile host="app.diagrams.net" modified="2023-04-17T07:03:01.742Z" agent="Mozilla/5.0 (Windows NT 10.0; Win64; x64) AppleWebKit/537.36 (KHTML, like Gecko) Chrome/112.0.0.0 Safari/537.36 Edg/112.0.1722.48" etag="j-T_9KK5b0MaW1fAfRAc" version="21.1.6" type="github" pages="4">
  <diagram name="送货管理" id="X3wgdLGq-_Crg-AjojkE">
    <mxGraphModel dx="1434" dy="756" grid="1" gridSize="10" guides="1" tooltips="1" connect="1" arrows="1" fold="1" page="1" pageScale="1" pageWidth="827" pageHeight="1169" math="0" shadow="0">
      <root>
        <mxCell id="0" />
        <mxCell id="1" parent="0" />
        <mxCell id="Wh6mt4iKhqSVBK08v1Cl-14" style="edgeStyle=orthogonalEdgeStyle;rounded=0;orthogonalLoop=1;jettySize=auto;html=1;exitX=0.5;exitY=1;exitDx=0;exitDy=0;entryX=0.5;entryY=0;entryDx=0;entryDy=0;" parent="1" source="Wh6mt4iKhqSVBK08v1Cl-2" target="Wh6mt4iKhqSVBK08v1Cl-13" edge="1">
          <mxGeometry relative="1" as="geometry" />
        </mxCell>
        <mxCell id="Wh6mt4iKhqSVBK08v1Cl-2" value="送货通知" style="rounded=0;whiteSpace=wrap;html=1;" parent="1" vertex="1">
          <mxGeometry x="351" y="280" width="126" height="60" as="geometry" />
        </mxCell>
        <mxCell id="Wh6mt4iKhqSVBK08v1Cl-5" value="&lt;font style=&quot;font-size: 16px;&quot;&gt;&lt;b&gt;送货管理&lt;/b&gt;&lt;/font&gt;" style="text;html=1;align=center;verticalAlign=middle;resizable=0;points=[];autosize=1;strokeColor=none;fillColor=none;" parent="1" vertex="1">
          <mxGeometry x="369" y="60" width="90" height="30" as="geometry" />
        </mxCell>
        <mxCell id="nUbRB1EBlm9rnnvI8mGR-4" style="edgeStyle=orthogonalEdgeStyle;rounded=0;orthogonalLoop=1;jettySize=auto;html=1;exitX=0.5;exitY=1;exitDx=0;exitDy=0;entryX=0.5;entryY=0;entryDx=0;entryDy=0;" parent="1" source="Wh6mt4iKhqSVBK08v1Cl-12" target="nUbRB1EBlm9rnnvI8mGR-2" edge="1">
          <mxGeometry relative="1" as="geometry" />
        </mxCell>
        <mxCell id="Wh6mt4iKhqSVBK08v1Cl-12" value="到货登记" style="rounded=0;whiteSpace=wrap;html=1;" parent="1" vertex="1">
          <mxGeometry x="354" y="520" width="120" height="60" as="geometry" />
        </mxCell>
        <mxCell id="Wh6mt4iKhqSVBK08v1Cl-15" style="edgeStyle=orthogonalEdgeStyle;rounded=0;orthogonalLoop=1;jettySize=auto;html=1;exitX=0.5;exitY=1;exitDx=0;exitDy=0;entryX=0.5;entryY=0;entryDx=0;entryDy=0;" parent="1" source="Wh6mt4iKhqSVBK08v1Cl-13" target="Wh6mt4iKhqSVBK08v1Cl-12" edge="1">
          <mxGeometry relative="1" as="geometry" />
        </mxCell>
        <mxCell id="Wh6mt4iKhqSVBK08v1Cl-13" value="到货分配" style="rounded=0;whiteSpace=wrap;html=1;" parent="1" vertex="1">
          <mxGeometry x="354" y="400" width="120" height="60" as="geometry" />
        </mxCell>
        <mxCell id="nUbRB1EBlm9rnnvI8mGR-3" style="edgeStyle=orthogonalEdgeStyle;rounded=0;orthogonalLoop=1;jettySize=auto;html=1;exitX=0.5;exitY=1;exitDx=0;exitDy=0;entryX=0.5;entryY=0;entryDx=0;entryDy=0;" parent="1" source="nUbRB1EBlm9rnnvI8mGR-1" target="Wh6mt4iKhqSVBK08v1Cl-2" edge="1">
          <mxGeometry relative="1" as="geometry" />
        </mxCell>
        <mxCell id="nUbRB1EBlm9rnnvI8mGR-1" value="开始" style="rounded=1;whiteSpace=wrap;html=1;" parent="1" vertex="1">
          <mxGeometry x="354" y="170" width="120" height="60" as="geometry" />
        </mxCell>
        <mxCell id="nUbRB1EBlm9rnnvI8mGR-2" value="结束" style="rounded=1;whiteSpace=wrap;html=1;" parent="1" vertex="1">
          <mxGeometry x="354" y="630" width="120" height="60" as="geometry" />
        </mxCell>
      </root>
    </mxGraphModel>
  </diagram>
  <diagram id="liIOY7kV3COZ_kVsWzIN" name="送货通知">
    <mxGraphModel dx="1434" dy="756" grid="1" gridSize="10" guides="1" tooltips="1" connect="1" arrows="1" fold="1" page="1" pageScale="1" pageWidth="827" pageHeight="1169" math="0" shadow="0">
      <root>
        <mxCell id="0" />
        <mxCell id="1" parent="0" />
        <mxCell id="GFYWQTXrey3wATUyHJn4-10" style="edgeStyle=orthogonalEdgeStyle;rounded=0;orthogonalLoop=1;jettySize=auto;html=1;entryX=0.5;entryY=0;entryDx=0;entryDy=0;" parent="1" source="GFYWQTXrey3wATUyHJn4-2" target="GFYWQTXrey3wATUyHJn4-9" edge="1">
          <mxGeometry relative="1" as="geometry" />
        </mxCell>
        <mxCell id="GFYWQTXrey3wATUyHJn4-2" value="开始" style="rounded=1;whiteSpace=wrap;html=1;" parent="1" vertex="1">
          <mxGeometry x="364" y="170" width="120" height="60" as="geometry" />
        </mxCell>
        <mxCell id="O0V3vh36GLOeQ8ISTEkM-5" style="edgeStyle=orthogonalEdgeStyle;rounded=0;orthogonalLoop=1;jettySize=auto;html=1;exitX=0.5;exitY=1;exitDx=0;exitDy=0;entryX=0;entryY=0.5;entryDx=0;entryDy=0;" parent="1" source="GFYWQTXrey3wATUyHJn4-3" target="GFYWQTXrey3wATUyHJn4-18" edge="1">
          <mxGeometry relative="1" as="geometry" />
        </mxCell>
        <mxCell id="GFYWQTXrey3wATUyHJn4-3" value="导入" style="rounded=0;whiteSpace=wrap;html=1;" parent="1" vertex="1">
          <mxGeometry x="180" y="450" width="120" height="60" as="geometry" />
        </mxCell>
        <mxCell id="GFYWQTXrey3wATUyHJn4-4" value="&lt;font style=&quot;font-size: 16px;&quot;&gt;&lt;b&gt;送货通知&lt;/b&gt;&lt;/font&gt;" style="text;html=1;strokeColor=none;fillColor=none;align=center;verticalAlign=middle;whiteSpace=wrap;rounded=0;" parent="1" vertex="1">
          <mxGeometry x="361" y="40" width="106" height="30" as="geometry" />
        </mxCell>
        <mxCell id="GFYWQTXrey3wATUyHJn4-19" style="edgeStyle=orthogonalEdgeStyle;rounded=0;orthogonalLoop=1;jettySize=auto;html=1;exitX=0.5;exitY=1;exitDx=0;exitDy=0;" parent="1" source="GFYWQTXrey3wATUyHJn4-7" target="GFYWQTXrey3wATUyHJn4-18" edge="1">
          <mxGeometry relative="1" as="geometry" />
        </mxCell>
        <mxCell id="GFYWQTXrey3wATUyHJn4-7" value="调用sap查询采购订单" style="rounded=0;whiteSpace=wrap;html=1;" parent="1" vertex="1">
          <mxGeometry x="364" y="510" width="120" height="60" as="geometry" />
        </mxCell>
        <mxCell id="GFYWQTXrey3wATUyHJn4-11" style="edgeStyle=orthogonalEdgeStyle;rounded=0;orthogonalLoop=1;jettySize=auto;html=1;exitX=0.5;exitY=1;exitDx=0;exitDy=0;entryX=0.5;entryY=0;entryDx=0;entryDy=0;" parent="1" source="GFYWQTXrey3wATUyHJn4-15" target="GFYWQTXrey3wATUyHJn4-7" edge="1">
          <mxGeometry relative="1" as="geometry" />
        </mxCell>
        <mxCell id="O0V3vh36GLOeQ8ISTEkM-3" style="edgeStyle=orthogonalEdgeStyle;rounded=0;orthogonalLoop=1;jettySize=auto;html=1;exitX=0;exitY=0.5;exitDx=0;exitDy=0;" parent="1" source="GFYWQTXrey3wATUyHJn4-9" target="GFYWQTXrey3wATUyHJn4-3" edge="1">
          <mxGeometry relative="1" as="geometry" />
        </mxCell>
        <mxCell id="GFYWQTXrey3wATUyHJn4-9" value="创建方式" style="rhombus;whiteSpace=wrap;html=1;" parent="1" vertex="1">
          <mxGeometry x="359" y="280" width="129" height="60" as="geometry" />
        </mxCell>
        <mxCell id="GFYWQTXrey3wATUyHJn4-12" value="&lt;span style=&quot;color: rgb(0, 0, 0); font-family: Helvetica; font-size: 12px; font-style: normal; font-variant-ligatures: normal; font-variant-caps: normal; font-weight: 400; letter-spacing: normal; orphans: 2; text-align: center; text-indent: 0px; text-transform: none; widows: 2; word-spacing: 0px; -webkit-text-stroke-width: 0px; background-color: rgb(251, 251, 251); text-decoration-thickness: initial; text-decoration-style: initial; text-decoration-color: initial; float: none; display: inline !important;&quot;&gt;采购订单&lt;/span&gt;" style="text;whiteSpace=wrap;html=1;" parent="1" vertex="1">
          <mxGeometry x="364" y="356" width="50" height="30" as="geometry" />
        </mxCell>
        <mxCell id="GFYWQTXrey3wATUyHJn4-16" value="" style="edgeStyle=orthogonalEdgeStyle;rounded=0;orthogonalLoop=1;jettySize=auto;html=1;exitX=0.5;exitY=1;exitDx=0;exitDy=0;entryX=0.5;entryY=0;entryDx=0;entryDy=0;" parent="1" source="GFYWQTXrey3wATUyHJn4-9" target="GFYWQTXrey3wATUyHJn4-15" edge="1">
          <mxGeometry relative="1" as="geometry">
            <mxPoint x="424" y="340" as="sourcePoint" />
            <mxPoint x="424" y="510" as="targetPoint" />
          </mxGeometry>
        </mxCell>
        <mxCell id="GFYWQTXrey3wATUyHJn4-15" value="添加物料" style="rounded=0;whiteSpace=wrap;html=1;" parent="1" vertex="1">
          <mxGeometry x="364" y="400" width="120" height="60" as="geometry" />
        </mxCell>
        <mxCell id="GFYWQTXrey3wATUyHJn4-23" style="edgeStyle=orthogonalEdgeStyle;rounded=0;orthogonalLoop=1;jettySize=auto;html=1;exitX=0.5;exitY=1;exitDx=0;exitDy=0;entryX=0.5;entryY=0;entryDx=0;entryDy=0;" parent="1" source="GFYWQTXrey3wATUyHJn4-18" target="GFYWQTXrey3wATUyHJn4-22" edge="1">
          <mxGeometry relative="1" as="geometry" />
        </mxCell>
        <mxCell id="GFYWQTXrey3wATUyHJn4-18" value="保存" style="rounded=0;whiteSpace=wrap;html=1;" parent="1" vertex="1">
          <mxGeometry x="364" y="620" width="120" height="60" as="geometry" />
        </mxCell>
        <mxCell id="GFYWQTXrey3wATUyHJn4-25" style="edgeStyle=orthogonalEdgeStyle;rounded=0;orthogonalLoop=1;jettySize=auto;html=1;exitX=0.5;exitY=1;exitDx=0;exitDy=0;entryX=0.5;entryY=0;entryDx=0;entryDy=0;" parent="1" source="GFYWQTXrey3wATUyHJn4-22" target="GFYWQTXrey3wATUyHJn4-24" edge="1">
          <mxGeometry relative="1" as="geometry" />
        </mxCell>
        <mxCell id="GFYWQTXrey3wATUyHJn4-22" value="提交" style="rounded=0;whiteSpace=wrap;html=1;" parent="1" vertex="1">
          <mxGeometry x="364" y="730" width="120" height="60" as="geometry" />
        </mxCell>
        <mxCell id="GFYWQTXrey3wATUyHJn4-24" value="结束" style="rounded=1;whiteSpace=wrap;html=1;" parent="1" vertex="1">
          <mxGeometry x="364" y="850" width="120" height="60" as="geometry" />
        </mxCell>
        <mxCell id="GFYWQTXrey3wATUyHJn4-26" value="&lt;div style=&quot;&quot;&gt;&lt;pre style=&quot;&quot;&gt;自动生成到货分配单&lt;/pre&gt;&lt;/div&gt;" style="text;whiteSpace=wrap;html=1;" parent="1" vertex="1">
          <mxGeometry x="490" y="730" width="140" height="40" as="geometry" />
        </mxCell>
        <mxCell id="O0V3vh36GLOeQ8ISTEkM-2" value="&lt;span style=&quot;color: rgb(0, 0, 0); font-family: Helvetica; font-size: 12px; font-style: normal; font-variant-ligatures: normal; font-variant-caps: normal; font-weight: 400; letter-spacing: normal; orphans: 2; text-align: center; text-indent: 0px; text-transform: none; widows: 2; word-spacing: 0px; -webkit-text-stroke-width: 0px; background-color: rgb(251, 251, 251); text-decoration-thickness: initial; text-decoration-style: initial; text-decoration-color: initial; float: none; display: inline !important;&quot;&gt;模板&lt;/span&gt;" style="text;whiteSpace=wrap;html=1;" parent="1" vertex="1">
          <mxGeometry x="290" y="280" width="30" height="30" as="geometry" />
        </mxCell>
        <mxCell id="gLu4K2c-wN7Vlb9szMI9-2" value="&lt;div style=&quot;line-height: 150%;&quot;&gt;&lt;div style=&quot;line-height: 150%;&quot;&gt;送货通知单 标签数据 材质证书 物料主数据单重 单据图片 操作日志 附件 单据流&lt;/div&gt;&lt;/div&gt;" style="text;whiteSpace=wrap;html=1;" vertex="1" parent="1">
          <mxGeometry x="488" y="620" width="266" height="60" as="geometry" />
        </mxCell>
      </root>
    </mxGraphModel>
  </diagram>
  <diagram name="到货分配" id="PlyRIoZ0xoMgmd-16wHQ">
    <mxGraphModel dx="1434" dy="756" grid="1" gridSize="10" guides="1" tooltips="1" connect="1" arrows="1" fold="1" page="1" pageScale="1" pageWidth="827" pageHeight="1169" math="0" shadow="0">
      <root>
        <mxCell id="Eqexfa2UzpbZ_ncxNsiV-0" />
        <mxCell id="Eqexfa2UzpbZ_ncxNsiV-1" parent="Eqexfa2UzpbZ_ncxNsiV-0" />
        <mxCell id="Eqexfa2UzpbZ_ncxNsiV-2" style="edgeStyle=orthogonalEdgeStyle;rounded=0;orthogonalLoop=1;jettySize=auto;html=1;entryX=0.5;entryY=0;entryDx=0;entryDy=0;" parent="Eqexfa2UzpbZ_ncxNsiV-1" source="Eqexfa2UzpbZ_ncxNsiV-3" target="Eqexfa2UzpbZ_ncxNsiV-11" edge="1">
          <mxGeometry relative="1" as="geometry" />
        </mxCell>
        <mxCell id="Eqexfa2UzpbZ_ncxNsiV-3" value="开始" style="rounded=1;whiteSpace=wrap;html=1;" parent="Eqexfa2UzpbZ_ncxNsiV-1" vertex="1">
          <mxGeometry x="364" y="170" width="120" height="60" as="geometry" />
        </mxCell>
        <mxCell id="Eqexfa2UzpbZ_ncxNsiV-6" value="&lt;font style=&quot;font-size: 16px;&quot;&gt;&lt;b&gt;到货分配&lt;/b&gt;&lt;/font&gt;" style="text;html=1;strokeColor=none;fillColor=none;align=center;verticalAlign=middle;whiteSpace=wrap;rounded=0;" parent="Eqexfa2UzpbZ_ncxNsiV-1" vertex="1">
          <mxGeometry x="361" y="40" width="106" height="30" as="geometry" />
        </mxCell>
        <mxCell id="Eqexfa2UzpbZ_ncxNsiV-9" style="edgeStyle=orthogonalEdgeStyle;rounded=0;orthogonalLoop=1;jettySize=auto;html=1;exitX=0.5;exitY=1;exitDx=0;exitDy=0;entryX=0.5;entryY=0;entryDx=0;entryDy=0;" parent="Eqexfa2UzpbZ_ncxNsiV-1" source="Eqexfa2UzpbZ_ncxNsiV-14" target="Eqexfa2UzpbZ_ncxNsiV-16" edge="1">
          <mxGeometry relative="1" as="geometry">
            <mxPoint x="424" y="510" as="targetPoint" />
          </mxGeometry>
        </mxCell>
        <mxCell id="Eqexfa2UzpbZ_ncxNsiV-10" style="edgeStyle=orthogonalEdgeStyle;rounded=0;orthogonalLoop=1;jettySize=auto;html=1;exitX=0;exitY=0.5;exitDx=0;exitDy=0;entryX=0;entryY=0.5;entryDx=0;entryDy=0;" parent="Eqexfa2UzpbZ_ncxNsiV-1" source="Eqexfa2UzpbZ_ncxNsiV-11" target="Eqexfa2UzpbZ_ncxNsiV-19" edge="1">
          <mxGeometry relative="1" as="geometry">
            <mxPoint x="240" y="400" as="targetPoint" />
            <Array as="points">
              <mxPoint x="290" y="310" />
              <mxPoint x="290" y="690" />
            </Array>
          </mxGeometry>
        </mxCell>
        <mxCell id="Eqexfa2UzpbZ_ncxNsiV-11" value="创建方式" style="rhombus;whiteSpace=wrap;html=1;" parent="Eqexfa2UzpbZ_ncxNsiV-1" vertex="1">
          <mxGeometry x="359" y="280" width="129" height="60" as="geometry" />
        </mxCell>
        <mxCell id="Eqexfa2UzpbZ_ncxNsiV-12" value="&lt;span style=&quot;color: rgb(0, 0, 0); font-family: Helvetica; font-size: 12px; font-style: normal; font-variant-ligatures: normal; font-variant-caps: normal; font-weight: 400; letter-spacing: normal; orphans: 2; text-align: center; text-indent: 0px; text-transform: none; widows: 2; word-spacing: 0px; -webkit-text-stroke-width: 0px; background-color: rgb(251, 251, 251); text-decoration-thickness: initial; text-decoration-style: initial; text-decoration-color: initial; float: none; display: inline !important;&quot;&gt;送货通知自动生成&lt;/span&gt;" style="text;whiteSpace=wrap;html=1;" parent="Eqexfa2UzpbZ_ncxNsiV-1" vertex="1">
          <mxGeometry x="240" y="475" width="106" height="30" as="geometry" />
        </mxCell>
        <mxCell id="Eqexfa2UzpbZ_ncxNsiV-13" value="" style="edgeStyle=orthogonalEdgeStyle;rounded=0;orthogonalLoop=1;jettySize=auto;html=1;exitX=0.5;exitY=1;exitDx=0;exitDy=0;entryX=0.5;entryY=0;entryDx=0;entryDy=0;" parent="Eqexfa2UzpbZ_ncxNsiV-1" source="Eqexfa2UzpbZ_ncxNsiV-11" target="Eqexfa2UzpbZ_ncxNsiV-14" edge="1">
          <mxGeometry relative="1" as="geometry">
            <mxPoint x="424" y="340" as="sourcePoint" />
            <mxPoint x="424" y="510" as="targetPoint" />
          </mxGeometry>
        </mxCell>
        <mxCell id="Eqexfa2UzpbZ_ncxNsiV-14" value="添加物料（行项目）" style="rounded=0;whiteSpace=wrap;html=1;" parent="Eqexfa2UzpbZ_ncxNsiV-1" vertex="1">
          <mxGeometry x="364" y="400" width="120" height="60" as="geometry" />
        </mxCell>
        <mxCell id="Eqexfa2UzpbZ_ncxNsiV-15" style="edgeStyle=orthogonalEdgeStyle;rounded=0;orthogonalLoop=1;jettySize=auto;html=1;exitX=0.5;exitY=1;exitDx=0;exitDy=0;entryX=0.5;entryY=0;entryDx=0;entryDy=0;" parent="Eqexfa2UzpbZ_ncxNsiV-1" source="Eqexfa2UzpbZ_ncxNsiV-16" target="Eqexfa2UzpbZ_ncxNsiV-19" edge="1">
          <mxGeometry relative="1" as="geometry" />
        </mxCell>
        <mxCell id="Eqexfa2UzpbZ_ncxNsiV-16" value="保存" style="rounded=0;whiteSpace=wrap;html=1;" parent="Eqexfa2UzpbZ_ncxNsiV-1" vertex="1">
          <mxGeometry x="364" y="525" width="120" height="60" as="geometry" />
        </mxCell>
        <mxCell id="Eqexfa2UzpbZ_ncxNsiV-17" value="&lt;div style=&quot;&quot;&gt;&lt;pre style=&quot;&quot;&gt;到货分配单 单据图片 操作日志 附件 单据流&lt;/pre&gt;&lt;/div&gt;" style="text;whiteSpace=wrap;html=1;" parent="Eqexfa2UzpbZ_ncxNsiV-1" vertex="1">
          <mxGeometry x="488" y="525" width="306" height="65" as="geometry" />
        </mxCell>
        <mxCell id="Eqexfa2UzpbZ_ncxNsiV-18" style="edgeStyle=orthogonalEdgeStyle;rounded=0;orthogonalLoop=1;jettySize=auto;html=1;exitX=0.5;exitY=1;exitDx=0;exitDy=0;entryX=0.5;entryY=0;entryDx=0;entryDy=0;" parent="Eqexfa2UzpbZ_ncxNsiV-1" source="Eqexfa2UzpbZ_ncxNsiV-19" target="Eqexfa2UzpbZ_ncxNsiV-20" edge="1">
          <mxGeometry relative="1" as="geometry" />
        </mxCell>
        <mxCell id="Eqexfa2UzpbZ_ncxNsiV-19" value="提交" style="rounded=0;whiteSpace=wrap;html=1;" parent="Eqexfa2UzpbZ_ncxNsiV-1" vertex="1">
          <mxGeometry x="363.5" y="660" width="120" height="60" as="geometry" />
        </mxCell>
        <mxCell id="Eqexfa2UzpbZ_ncxNsiV-20" value="结束" style="rounded=1;whiteSpace=wrap;html=1;" parent="Eqexfa2UzpbZ_ncxNsiV-1" vertex="1">
          <mxGeometry x="363.5" y="770" width="120" height="60" as="geometry" />
        </mxCell>
        <mxCell id="Eqexfa2UzpbZ_ncxNsiV-21" value="&lt;div style=&quot;&quot;&gt;&lt;pre style=&quot;&quot;&gt;自动生成到货登记单&lt;/pre&gt;&lt;/div&gt;" style="text;whiteSpace=wrap;html=1;" parent="Eqexfa2UzpbZ_ncxNsiV-1" vertex="1">
          <mxGeometry x="488" y="665" width="140" height="50" as="geometry" />
        </mxCell>
        <mxCell id="Eqexfa2UzpbZ_ncxNsiV-22" value="&lt;span style=&quot;color: rgb(0, 0, 0); font-family: Helvetica; font-size: 12px; font-style: normal; font-variant-ligatures: normal; font-variant-caps: normal; font-weight: 400; letter-spacing: normal; orphans: 2; text-align: center; text-indent: 0px; text-transform: none; widows: 2; word-spacing: 0px; -webkit-text-stroke-width: 0px; background-color: rgb(251, 251, 251); text-decoration-thickness: initial; text-decoration-style: initial; text-decoration-color: initial; float: none; display: inline !important;&quot;&gt;基于送货通知创建&lt;/span&gt;" style="text;whiteSpace=wrap;html=1;" parent="Eqexfa2UzpbZ_ncxNsiV-1" vertex="1">
          <mxGeometry x="374" y="350" width="100" height="30" as="geometry" />
        </mxCell>
        <mxCell id="9w2fbXqTApk7guRfjKYI-0" value="&lt;span style=&quot;orphans: 2; text-align: left; text-indent: 0px; widows: 2; text-decoration-thickness: initial; text-decoration-style: initial; text-decoration-color: initial; float: none; display: inline !important;&quot;&gt;分配物资管理员&lt;/span&gt;" style="text;whiteSpace=wrap;html=1;" parent="Eqexfa2UzpbZ_ncxNsiV-1" vertex="1">
          <mxGeometry x="488" y="410" width="100" height="40" as="geometry" />
        </mxCell>
      </root>
    </mxGraphModel>
  </diagram>
  <diagram name="到货登记" id="NA5efV6Q6ccj4urvWhV9">
    <mxGraphModel dx="1434" dy="756" grid="1" gridSize="10" guides="1" tooltips="1" connect="1" arrows="1" fold="1" page="1" pageScale="1" pageWidth="827" pageHeight="1169" math="0" shadow="0">
      <root>
        <mxCell id="o6Z4xU-KA2Y51pi3Z5cj-0" />
        <mxCell id="o6Z4xU-KA2Y51pi3Z5cj-1" parent="o6Z4xU-KA2Y51pi3Z5cj-0" />
        <mxCell id="o6Z4xU-KA2Y51pi3Z5cj-2" style="edgeStyle=orthogonalEdgeStyle;rounded=0;orthogonalLoop=1;jettySize=auto;html=1;entryX=0.5;entryY=0;entryDx=0;entryDy=0;" parent="o6Z4xU-KA2Y51pi3Z5cj-1" source="o6Z4xU-KA2Y51pi3Z5cj-3" target="o6Z4xU-KA2Y51pi3Z5cj-7" edge="1">
          <mxGeometry relative="1" as="geometry" />
        </mxCell>
        <mxCell id="o6Z4xU-KA2Y51pi3Z5cj-3" value="开始" style="rounded=1;whiteSpace=wrap;html=1;" parent="o6Z4xU-KA2Y51pi3Z5cj-1" vertex="1">
          <mxGeometry x="364" y="170" width="120" height="60" as="geometry" />
        </mxCell>
        <mxCell id="o6Z4xU-KA2Y51pi3Z5cj-4" value="&lt;font style=&quot;font-size: 16px;&quot;&gt;&lt;b&gt;到货登记&lt;/b&gt;&lt;/font&gt;" style="text;html=1;strokeColor=none;fillColor=none;align=center;verticalAlign=middle;whiteSpace=wrap;rounded=0;" parent="o6Z4xU-KA2Y51pi3Z5cj-1" vertex="1">
          <mxGeometry x="361" y="40" width="106" height="30" as="geometry" />
        </mxCell>
        <mxCell id="o6Z4xU-KA2Y51pi3Z5cj-5" style="edgeStyle=orthogonalEdgeStyle;rounded=0;orthogonalLoop=1;jettySize=auto;html=1;exitX=0.5;exitY=1;exitDx=0;exitDy=0;entryX=0.5;entryY=0;entryDx=0;entryDy=0;" parent="o6Z4xU-KA2Y51pi3Z5cj-1" source="o6Z4xU-KA2Y51pi3Z5cj-10" target="o6Z4xU-KA2Y51pi3Z5cj-12" edge="1">
          <mxGeometry relative="1" as="geometry">
            <mxPoint x="424" y="510" as="targetPoint" />
          </mxGeometry>
        </mxCell>
        <mxCell id="ec8CVk_18wHqUUCT-SaL-11" style="edgeStyle=orthogonalEdgeStyle;rounded=0;orthogonalLoop=1;jettySize=auto;html=1;exitX=0;exitY=0.5;exitDx=0;exitDy=0;entryX=0;entryY=0.5;entryDx=0;entryDy=0;" parent="o6Z4xU-KA2Y51pi3Z5cj-1" source="o6Z4xU-KA2Y51pi3Z5cj-7" target="ec8CVk_18wHqUUCT-SaL-7" edge="1">
          <mxGeometry relative="1" as="geometry">
            <Array as="points">
              <mxPoint x="310" y="310" />
              <mxPoint x="310" y="680" />
            </Array>
          </mxGeometry>
        </mxCell>
        <mxCell id="IxM2aRsH7dyCOvsz6ltu-1" value="到货分配自动生成" style="edgeLabel;html=1;align=center;verticalAlign=middle;resizable=0;points=[];" parent="ec8CVk_18wHqUUCT-SaL-11" vertex="1" connectable="0">
          <mxGeometry x="-0.0623" y="2" relative="1" as="geometry">
            <mxPoint as="offset" />
          </mxGeometry>
        </mxCell>
        <mxCell id="o6Z4xU-KA2Y51pi3Z5cj-7" value="创建方式" style="rhombus;whiteSpace=wrap;html=1;" parent="o6Z4xU-KA2Y51pi3Z5cj-1" vertex="1">
          <mxGeometry x="359" y="280" width="129" height="60" as="geometry" />
        </mxCell>
        <mxCell id="o6Z4xU-KA2Y51pi3Z5cj-9" value="" style="edgeStyle=orthogonalEdgeStyle;rounded=0;orthogonalLoop=1;jettySize=auto;html=1;exitX=0.5;exitY=1;exitDx=0;exitDy=0;entryX=0.5;entryY=0;entryDx=0;entryDy=0;" parent="o6Z4xU-KA2Y51pi3Z5cj-1" source="o6Z4xU-KA2Y51pi3Z5cj-7" target="o6Z4xU-KA2Y51pi3Z5cj-10" edge="1">
          <mxGeometry relative="1" as="geometry">
            <mxPoint x="424" y="340" as="sourcePoint" />
            <mxPoint x="424" y="510" as="targetPoint" />
          </mxGeometry>
        </mxCell>
        <mxCell id="o6Z4xU-KA2Y51pi3Z5cj-10" value="添加物料（行项目）" style="rounded=0;whiteSpace=wrap;html=1;" parent="o6Z4xU-KA2Y51pi3Z5cj-1" vertex="1">
          <mxGeometry x="364" y="400" width="120" height="60" as="geometry" />
        </mxCell>
        <mxCell id="ec8CVk_18wHqUUCT-SaL-9" style="edgeStyle=orthogonalEdgeStyle;rounded=0;orthogonalLoop=1;jettySize=auto;html=1;exitX=0.5;exitY=1;exitDx=0;exitDy=0;entryX=0.5;entryY=0;entryDx=0;entryDy=0;" parent="o6Z4xU-KA2Y51pi3Z5cj-1" source="o6Z4xU-KA2Y51pi3Z5cj-12" target="ec8CVk_18wHqUUCT-SaL-7" edge="1">
          <mxGeometry relative="1" as="geometry" />
        </mxCell>
        <mxCell id="o6Z4xU-KA2Y51pi3Z5cj-12" value="保存" style="rounded=0;whiteSpace=wrap;html=1;" parent="o6Z4xU-KA2Y51pi3Z5cj-1" vertex="1">
          <mxGeometry x="364" y="525" width="120" height="60" as="geometry" />
        </mxCell>
        <mxCell id="o6Z4xU-KA2Y51pi3Z5cj-14" style="edgeStyle=orthogonalEdgeStyle;rounded=0;orthogonalLoop=1;jettySize=auto;html=1;exitX=0.5;exitY=1;exitDx=0;exitDy=0;entryX=0.5;entryY=0;entryDx=0;entryDy=0;" parent="o6Z4xU-KA2Y51pi3Z5cj-1" source="o6Z4xU-KA2Y51pi3Z5cj-15" target="o6Z4xU-KA2Y51pi3Z5cj-16" edge="1">
          <mxGeometry relative="1" as="geometry" />
        </mxCell>
        <mxCell id="o6Z4xU-KA2Y51pi3Z5cj-15" value="提交" style="rounded=0;whiteSpace=wrap;html=1;" parent="o6Z4xU-KA2Y51pi3Z5cj-1" vertex="1">
          <mxGeometry x="364" y="760" width="120" height="60" as="geometry" />
        </mxCell>
        <mxCell id="o6Z4xU-KA2Y51pi3Z5cj-16" value="结束" style="rounded=1;whiteSpace=wrap;html=1;" parent="o6Z4xU-KA2Y51pi3Z5cj-1" vertex="1">
          <mxGeometry x="364" y="870" width="120" height="60" as="geometry" />
        </mxCell>
        <mxCell id="o6Z4xU-KA2Y51pi3Z5cj-18" value="&lt;span style=&quot;color: rgb(0, 0, 0); font-family: Helvetica; font-size: 12px; font-style: normal; font-variant-ligatures: normal; font-variant-caps: normal; font-weight: 400; letter-spacing: normal; orphans: 2; text-align: center; text-indent: 0px; text-transform: none; widows: 2; word-spacing: 0px; -webkit-text-stroke-width: 0px; background-color: rgb(251, 251, 251); text-decoration-thickness: initial; text-decoration-style: initial; text-decoration-color: initial; float: none; display: inline !important;&quot;&gt;基于模板创建（xxx入库单）&lt;/span&gt;" style="text;whiteSpace=wrap;html=1;" parent="o6Z4xU-KA2Y51pi3Z5cj-1" vertex="1">
          <mxGeometry x="430" y="340" width="160" height="30" as="geometry" />
        </mxCell>
        <mxCell id="o6Z4xU-KA2Y51pi3Z5cj-19" value="选择验收组" style="text;whiteSpace=wrap;html=1;" parent="o6Z4xU-KA2Y51pi3Z5cj-1" vertex="1">
          <mxGeometry x="488" y="420" width="100" height="40" as="geometry" />
        </mxCell>
        <mxCell id="ec8CVk_18wHqUUCT-SaL-0" value="&lt;span style=&quot;color: rgb(0, 0, 0); font-family: Helvetica; font-size: 12px; font-style: normal; font-variant-ligatures: normal; font-variant-caps: normal; font-weight: 400; letter-spacing: normal; orphans: 2; text-align: center; text-indent: 0px; text-transform: none; widows: 2; word-spacing: 0px; -webkit-text-stroke-width: 0px; background-color: rgb(251, 251, 251); text-decoration-thickness: initial; text-decoration-style: initial; text-decoration-color: initial; float: none; display: inline !important;&quot;&gt;基于采购订单创建&lt;/span&gt;" style="text;whiteSpace=wrap;html=1;" parent="o6Z4xU-KA2Y51pi3Z5cj-1" vertex="1">
          <mxGeometry x="430" y="360" width="100" height="30" as="geometry" />
        </mxCell>
        <mxCell id="ec8CVk_18wHqUUCT-SaL-10" style="edgeStyle=orthogonalEdgeStyle;rounded=0;orthogonalLoop=1;jettySize=auto;html=1;exitX=0.5;exitY=1;exitDx=0;exitDy=0;" parent="o6Z4xU-KA2Y51pi3Z5cj-1" source="ec8CVk_18wHqUUCT-SaL-7" target="o6Z4xU-KA2Y51pi3Z5cj-15" edge="1">
          <mxGeometry relative="1" as="geometry" />
        </mxCell>
        <mxCell id="ec8CVk_18wHqUUCT-SaL-7" value="上传附件" style="rounded=0;whiteSpace=wrap;html=1;" parent="o6Z4xU-KA2Y51pi3Z5cj-1" vertex="1">
          <mxGeometry x="364" y="650" width="120" height="60" as="geometry" />
        </mxCell>
        <mxCell id="ec8CVk_18wHqUUCT-SaL-13" value="材料证书" style="text;whiteSpace=wrap;html=1;" parent="o6Z4xU-KA2Y51pi3Z5cj-1" vertex="1">
          <mxGeometry x="490" y="660" width="100" height="40" as="geometry" />
        </mxCell>
        <mxCell id="uANuUf6fOTasugFutQU--0" value="&lt;div style=&quot;line-height: 150%;&quot;&gt;&lt;div style=&quot;line-height: 150%;&quot;&gt;到货登记单 标签数据 &amp;nbsp;材质证书 物料主数据单重 单据图片 操作日志 附件 单据流&lt;/div&gt;&lt;/div&gt;" style="text;whiteSpace=wrap;html=1;" vertex="1" parent="o6Z4xU-KA2Y51pi3Z5cj-1">
          <mxGeometry x="489" y="530" width="260" height="55" as="geometry" />
        </mxCell>
        <mxCell id="uANuUf6fOTasugFutQU--1" value="&lt;div style=&quot;line-height: 150%;&quot;&gt;&lt;div style=&quot;line-height: 150%;&quot;&gt;生成采购验收单 生成其他入库单 生成油漆入库单 生成完工物资入库单 生成零价值入库&lt;/div&gt;&lt;/div&gt;" style="text;whiteSpace=wrap;html=1;" vertex="1" parent="o6Z4xU-KA2Y51pi3Z5cj-1">
          <mxGeometry x="490" y="760" width="271" height="60" as="geometry" />
        </mxCell>
      </root>
    </mxGraphModel>
  </diagram>
</mxfile>
